<svg xmlns="http://www.w3.org/2000/svg" width="100" height="21"><defs><clipPath id="a"><path fill="none" d="M0 0h100v21H0z"/></clipPath></defs><g fill="#1b224c" clip-path="url(#a)" ><path d="M13.987 4.114 11.2 5.524a4.353 4.353 0 0 0-1.487-1.51 3.938 3.938 0 0 0-1.9-.4 3.9 3.9 0 0 0-2.37.692 2.039 2.039 0 0 0-.942 1.711q0 1.422 2.473 2.29l2.267.793a9.87 9.87 0 0 1 4.059 2.331 4.778 4.778 0 0 1 1.281 3.378 5.528 5.528 0 0 1-2.091 4.429 7.869 7.869 0 0 1-5.227 1.761 7.734 7.734 0 0 1-4.888-1.5A6.566 6.566 0 0 1 0 15.288l3.475-.654a4.551 4.551 0 0 0 .825 2.365 3.815 3.815 0 0 0 3.092 1.258 3.924 3.924 0 0 0 2.665-.919 2.946 2.946 0 0 0 1.06-2.328 2.835 2.835 0 0 0-.184-1.038 2.566 2.566 0 0 0-.574-.868 4.468 4.468 0 0 0-1.009-.742 10.39 10.39 0 0 0-1.472-.661l-2.194-.78Q1.016 9.236 1.016 5.989a4.428 4.428 0 0 1 1.958-3.661A7.834 7.834 0 0 1 7.848.843a7.007 7.007 0 0 1 6.139 3.271"/><path d="M35.686 15.929h-9.732l-2.532 4.718h-3.7L30.974 0l10.851 20.648h-3.754Zm-1.4-2.756-3.372-6.606-3.534 6.606Z"/><path d="M49.491 1.22h3.43v19.427h-3.43z"/><path d="m70.305 12.368 7.038 8.279h-4.2l-6.493-7.952h-.619v7.957h-3.43V1.22h4.019q4.505 0 6.508 1.447a5.019 5.019 0 0 1 2.208 4.253 5.023 5.023 0 0 1-1.384 3.548 6.408 6.408 0 0 1-3.651 1.9m-4.27-2.227h1.09q4.873 0 4.873-3.183 0-2.982-4.741-2.982h-1.222Z"/><path d="M86.601 1.22v11.7a5.707 5.707 0 0 0 .957 3.662 5.682 5.682 0 0 0 8.054 0 5.614 5.614 0 0 0 .957-3.662V1.22H100v12.507a6.468 6.468 0 0 1-2.238 5.058 9.72 9.72 0 0 1-12.353 0 6.467 6.467 0 0 1-2.238-5.058V1.22Z"/></g></svg>